HIERARCHY
ROOT Hips
{
    OFFSET 0.000000 0.000000 0.000000
    CHANNELS 6 Xposition Yposition Zposition Zrotation Yrotation Xrotation
    JOINT Chest
    {
        OFFSET 0.000000 1.634758 -0.000000
        CHANNELS 3 Zrotation Yrotation Xrotation
        JOINT Chest2
        {
            OFFSET 0.000000 2.197341 0.000000
            CHANNELS 3 Zrotation Yrotation Xrotation
            JOINT Neck
            {
                OFFSET 0.000000 0.961544 0.000000
                CHANNELS 3 Zrotation Yrotation Xrotation
                JOINT Head
                {
                    OFFSET 0.000000 0.632542 -0.032565
                    CHANNELS 3 Zrotation Yrotation Xrotation
                    End Site
                    {
                        OFFSET -0.000001 0.439502 2.922845
                    }
                }
            }
            JOINT LeftCollar
            {
                OFFSET 0.167536 0.778237 -0.168280
                CHANNELS 3 Zrotation Yrotation Xrotation
                JOINT LeftShoulder
                {
                    OFFSET 0.831514 -0.002900 0.006458
                    CHANNELS 3 Zrotation Yrotation Xrotation
                    JOINT LeftElbow
                    {
                        OFFSET 2.272872 -0.026639 0.059314
                        CHANNELS 3 Zrotation Yrotation Xrotation
                        JOINT LeftWrist
                        {
                            OFFSET 2.081982 -0.024402 0.054333
                            CHANNELS 3 Zrotation Yrotation Xrotation
                            JOINT LeftHandThumb1
                            {
                                OFFSET 0.218903 -0.128645 0.283837
                                CHANNELS 3 Zrotation Yrotation Xrotation
                                JOINT LeftHandThumb2
                                {
                                    OFFSET 0.137157 -0.025101 0.077902
                                    CHANNELS 3 Zrotation Yrotation Xrotation
                                    JOINT LeftHandThumb3
                                    {
                                        OFFSET 0.165053 -0.078363 0.012489
                                        CHANNELS 3 Zrotation Yrotation Xrotation
                                        End Site
                                        {
                                            OFFSET 0.180925 -0.106478 -0.166629
                                        }
                                    }
                                }
                            }
                            JOINT LeftHandFore1
                            {
                                OFFSET 0.767340 -0.016076 0.196678
                                CHANNELS 3 Zrotation Yrotation Xrotation
                                JOINT LeftHandFore2
                                {
                                    OFFSET 0.065761 -0.205801 0.017803
                                    CHANNELS 3 Zrotation Yrotation Xrotation
                                    JOINT LeftHandFore3
                                    {
                                        OFFSET -0.125377 0.032174 -0.002909
                                        CHANNELS 3 Zrotation Yrotation Xrotation
                                        End Site
                                        {
                                            OFFSET -0.037405 0.189221 -0.012767
                                        }
                                    }
                                }
                            }
                            JOINT LeftHandMiddle1
                            {
                                OFFSET 0.709887 -0.008320 0.018526
                                CHANNELS 3 Zrotation Yrotation Xrotation
                                JOINT LeftHandMiddle2
                                {
                                    OFFSET 0.046973 -0.240144 0.013723
                                    CHANNELS 3 Zrotation Yrotation Xrotation
                                    JOINT LeftHandMiddle3
                                    {
                                        OFFSET -0.141190 0.038024 -0.001699
                                        CHANNELS 3 Zrotation Yrotation Xrotation
                                        End Site
                                        {
                                            OFFSET -0.013647 0.234722 -0.018700
                                        }
                                    }
                                }
                            }
                            JOINT LeftHandRing1
                            {
                                OFFSET 0.743817 -0.005823 -0.153668
                                CHANNELS 3 Zrotation Yrotation Xrotation
                                JOINT LeftHandRing2
                                {
                                    OFFSET 0.072905 -0.344203 -0.030695
                                    CHANNELS 3 Zrotation Yrotation Xrotation
                                    JOINT LeftHandRing3
                                    {
                                        OFFSET -0.134883 0.018831 -0.007575
                                        CHANNELS 3 Zrotation Yrotation Xrotation
                                        End Site
                                        {
                                            OFFSET -0.001227 0.120076 0.000038
                                        }
                                    }
                                }
                            }
                            JOINT LeftHandLittle1
                            {
                                OFFSET 0.689408 -0.053302 -0.308304
                                CHANNELS 3 Zrotation Yrotation Xrotation
                                JOINT LeftHandLittle2
                                {
                                    OFFSET 0.040377 -0.185855 -0.043381
                                    CHANNELS 3 Zrotation Yrotation Xrotation
                                    JOINT LeftHandLittle3
                                    {
                                        OFFSET -0.102748 0.054596 -0.030957
                                        CHANNELS 3 Zrotation Yrotation Xrotation
                                        End Site
                                        {
                                            OFFSET 0.022173 0.188974 0.009252
                                        }
                                    }
                                }
                            }
                        }
                    }
                }
            }
            JOINT RightCollar
            {
                OFFSET -0.167536 0.778237 -0.168280
                CHANNELS 3 Zrotation Yrotation Xrotation
                JOINT RightShoulder
                {
                    OFFSET -0.831514 -0.002900 0.006457
                    CHANNELS 3 Zrotation Yrotation Xrotation
                    JOINT RightElbow
                    {
                        OFFSET -2.272872 -0.026639 0.059313
                        CHANNELS 3 Zrotation Yrotation Xrotation
                        JOINT RightWrist
                        {
                            OFFSET -2.081982 -0.024402 0.054331
                            CHANNELS 3 Zrotation Yrotation Xrotation
                            JOINT RightHandThumb1
                            {
                                OFFSET -0.218911 -0.128571 0.283837
                                CHANNELS 3 Zrotation Yrotation Xrotation
                                JOINT RightHandThumb2
                                {
                                    OFFSET -0.137157 -0.025101 0.077902
                                    CHANNELS 3 Zrotation Yrotation Xrotation
                                    JOINT RightHandThumb3
                                    {
                                        OFFSET -0.161206 -0.085213 0.017055
                                        CHANNELS 3 Zrotation Yrotation Xrotation
                                        End Site
                                        {
                                            OFFSET -0.113122 -0.227179 -0.086195
                                        }
                                    }
                                }
                            }
                            JOINT RightHandFore1
                            {
                                OFFSET -0.767344 -0.015991 0.196679
                                CHANNELS 3 Zrotation Yrotation Xrotation
                                JOINT RightHandFore2
                                {
                                    OFFSET -0.065809 -0.205789 0.017801
                                    CHANNELS 3 Zrotation Yrotation Xrotation
                                    JOINT RightHandFore3
                                    {
                                        OFFSET 0.125134 0.031585 -0.010303
                                        CHANNELS 3 Zrotation Yrotation Xrotation
                                        End Site
                                        {
                                            OFFSET 0.037233 0.188792 -0.018387
                                        }
                                    }
                                }
                            }
                            JOINT RightHandMiddle1
                            {
                                OFFSET -0.709887 -0.008302 0.018525
                                CHANNELS 3 Zrotation Yrotation Xrotation
                                JOINT RightHandMiddle2
                                {
                                    OFFSET -0.046948 -0.240145 0.013725
                                    CHANNELS 3 Zrotation Yrotation Xrotation
                                    JOINT RightHandMiddle3
                                    {
                                        OFFSET 0.141018 0.037658 -0.008961
                                        CHANNELS 3 Zrotation Yrotation Xrotation
                                        End Site
                                        {
                                            OFFSET 0.013935 0.235355 -0.006641
                                        }
                                    }
                                }
                            }
                            JOINT RightHandRing1
                            {
                                OFFSET -0.743819 -0.005785 -0.153669
                                CHANNELS 3 Zrotation Yrotation Xrotation
                                JOINT RightHandRing2
                                {
                                    OFFSET -0.072929 -0.344198 -0.030690
                                    CHANNELS 3 Zrotation Yrotation Xrotation
                                    JOINT RightHandRing3
                                    {
                                        OFFSET 0.134528 0.019293 -0.011618
                                        CHANNELS 3 Zrotation Yrotation Xrotation
                                        End Site
                                        {
                                            OFFSET 0.003369 0.117385 0.025092
                                        }
                                    }
                                }
                            }
                            JOINT RightHandLittle1
                            {
                                OFFSET -0.689403 -0.053298 -0.308303
                                CHANNELS 3 Zrotation Yrotation Xrotation
                                JOINT RightHandLittle2
                                {
                                    OFFSET -0.040383 -0.185856 -0.043381
                                    CHANNELS 3 Zrotation Yrotation Xrotation
                                    JOINT RightHandLittle3
                                    {
                                        OFFSET 0.111000 0.039963 0.024031
                                        CHANNELS 3 Zrotation Yrotation Xrotation
                                        End Site
                                        {
                                            OFFSET -0.010031 0.167386 0.090388
                                        }
                                    }
                                }
                            }
                        }
                    }
                }
            }
        }
    }
    JOINT LeftHip
    {
        OFFSET 0.685143 0.673822 -0.044491
        CHANNELS 3 Zrotation Yrotation Xrotation
        JOINT LeftKnee
        {
            OFFSET 0.085364 -3.750208 0.017676
            CHANNELS 3 Zrotation Yrotation Xrotation
            JOINT LeftAnkle
            {
                OFFSET 0.094583 -4.155206 0.019585
                CHANNELS 3 Zrotation Yrotation Xrotation
                JOINT LeftToe
                {
                    OFFSET -0.000000 -0.395925 0.621478
                    CHANNELS 3 Zrotation Yrotation Xrotation
                    End Site
                    {
                        OFFSET -0.000000 -0.077878 0.321152
                    }
                }
            }
        }
    }
    JOINT RightHip
    {
        OFFSET -0.685143 0.673822 -0.044492
        CHANNELS 3 Zrotation Yrotation Xrotation
        JOINT RightKnee
        {
            OFFSET -0.085364 -3.750208 0.017677
            CHANNELS 3 Zrotation Yrotation Xrotation
            JOINT RightAnkle
            {
                OFFSET -0.094583 -4.155206 0.019585
                CHANNELS 3 Zrotation Yrotation Xrotation
                JOINT RightToe
                {
                    OFFSET -0.000000 -0.395925 0.621478
                    CHANNELS 3 Zrotation Yrotation Xrotation
                    End Site
                    {
                        OFFSET -0.000000 -0.077878 0.321152
                    }
                }
            }
        }
    }
}
MOTION
Frames: 5
Frame Time: 0.033333
1.606085 8.517043 -1.873007 178.841095 8.592653 179.826828 1.966231 3.208795 -8.589029 2.279926 -0.665407 -3.963394 8.499489 -2.095357 6.636298 0.289096 -5.597337 14.582492 -14.474822 6.257797 -0.187142 -56.311794 16.927397 -3.490230 -0.000003 -0.000001 0.000001 3.498526 -8.083725 7.401674 0.000006 0.000002 -0.000001 -0.000004 -0.000001 0.000002 0.000013 -0.000027 -0.000012 0.000010 -0.000003 -0.000002 -0.000043 -0.000004 0.000004 -0.000036 -0.000004 0.000000 -0.000019 -0.000003 0.000000 -0.000086 -0.000006 0.000003 0.000003 -0.000000 -0.000000 -0.000098 -0.000007 0.000000 -0.000129 0.000008 0.000014 -0.000010 0.000001 0.000001 -0.000059 -0.000004 0.000004 0.000001 -0.000003 -0.000006 -0.000006 -0.000001 -0.000000 0.279179 8.787680 -0.023924 -4.467654 16.486305 4.992780 -177.896774 62.180248 -178.738983 -23.662960 -5.493688 -14.112332 0.000004 0.000010 -0.000004 -5.445977 4.214538 -7.097145 -44.566460 13.258331 -37.387775 -65.880470 -1.145817 1.562519 -120.332703 -8.801015 2.961855 -65.852432 -3.064887 1.614909 -72.186539 -1.240788 1.450330 -116.259026 -6.629385 1.247560 -70.073479 -6.129439 -2.441111 -69.935112 -5.455038 -4.638600 -106.897629 0.332335 -16.389784 -77.014549 -0.181567 -16.367189 -73.238846 -9.544909 -9.428274 -118.365921 11.000443 -41.284912 -78.704140 16.747793 -23.034092 7.288423 -0.682682 15.005762 -0.000000 -0.000000 0.000002 2.291685 5.978079 -10.129028 0.000001 -0.000001 -0.000001 10.705919 4.866985 13.602927 -0.000000 -0.000000 0.000000 -2.391053 -4.153607 -13.378493 0.000001 -0.000001 0.000001
1.565905 8.520974 -1.917685 178.841095 8.592648 178.456314 0.692411 4.321785 -7.357960 2.852703 -0.864000 -4.200931 10.079875 -1.744909 6.885378 0.277671 -5.377467 14.909087 -14.248342 4.440252 -0.252120 -54.940083 10.635067 -1.392044 -0.000002 -0.000001 0.000000 4.549387 -7.880375 5.494923 0.000004 0.000003 0.000006 0.051669 -0.131116 -0.011771 0.162348 -0.696079 -0.334047 0.960698 0.004138 0.017480 1.750385 0.102070 -0.030546 0.951825 0.127106 -0.051601 1.052660 0.000792 0.014773 1.694047 0.060655 -0.011515 1.026274 0.045634 0.012072 1.024242 0.065263 -0.073917 1.561372 -0.154009 -0.082308 1.139350 -0.120997 -0.033408 1.086663 0.121136 -0.145209 1.726750 -0.304197 -0.084983 1.103916 -0.203514 -0.323466 0.370236 10.318903 -0.025538 -2.436695 19.097784 4.703425 -176.856842 74.319000 -177.624756 -20.753946 -4.806097 -9.288273 0.000008 0.000015 -0.000001 -5.445970 4.214538 -7.097148 -44.566452 13.258331 -37.387768 -65.880470 -1.145814 1.562531 -120.332703 -8.801012 2.961855 -65.852432 -3.064886 1.614909 -72.186539 -1.240785 1.450339 -116.259056 -6.629380 1.247557 -70.073479 -6.129440 -2.441107 -69.935112 -5.455029 -4.638602 -106.897629 0.332340 -16.389786 -77.014549 -0.181567 -16.367191 -73.238846 -9.544908 -9.428267 -118.365921 11.000443 -41.284912 -78.704140 16.747795 -23.034094 13.700710 21.678019 17.222311 0.000001 -0.000000 -0.000001 -7.446235 -12.380097 -8.227051 -0.000001 -0.000002 0.000004 3.652303 -20.817503 15.489950 -0.000000 -0.000002 0.000002 8.686360 17.065115 -9.595536 -0.000000 -0.000003 0.000002
1.531604 8.529261 -2.024082 178.841095 8.592636 175.188171 -0.254694 5.174988 -4.161135 3.273957 -1.002262 -4.392008 12.350354 -1.729610 7.018452 0.291518 -5.643927 14.963666 -13.214772 3.183729 -0.279084 -51.431847 12.839353 0.039146 0.019105 -13.816102 -0.165012 5.349597 -7.367373 1.478209 -0.000002 -0.000002 -0.000001 0.197107 -0.498077 -0.045081 0.642285 -2.652726 -1.261445 3.650513 0.017979 0.066520 6.651257 0.396269 -0.093882 3.616838 0.482336 -0.186903 3.999754 0.010937 0.055220 6.437472 0.236141 -0.029501 3.899920 0.172148 0.054856 3.891561 0.250612 -0.280743 5.935380 -0.564654 -0.336251 4.330360 -0.452078 -0.132276 4.126268 0.463792 -0.551386 6.566524 -1.112067 -0.392576 4.205546 -0.736764 -1.232378 0.307453 11.529949 -0.029421 -1.620431 21.709345 3.811953 -171.075607 85.343071 -171.777786 -18.001593 -3.854500 -4.456882 0.000009 0.000015 0.000000 -5.445975 4.214538 -7.097150 -44.566460 13.258328 -37.387768 -65.880470 -1.145817 1.562531 -120.332687 -8.801012 2.961854 -65.852432 -3.064886 1.614909 -72.186539 -1.240785 1.450325 -116.259026 -6.629382 1.247557 -70.073494 -6.129439 -2.441113 -69.935112 -5.455033 -4.638605 -106.897621 0.332342 -16.389782 -77.014549 -0.181570 -16.367195 -73.238838 -9.544905 -9.428280 -118.365921 11.000444 -41.284908 -78.704140 16.747793 -23.034098 19.772369 32.158955 23.054192 0.000000 -0.000002 -0.000001 -15.055464 -20.181152 -3.348904 -0.000000 -0.000003 -0.000001 -3.160879 -33.165058 21.443838 0.000001 -0.000000 0.000000 17.914988 25.351992 -2.519940 0.000000 0.000003 0.000006
1.498027 8.545358 -2.150471 178.841110 8.592641 171.287460 -0.973904 5.768549 -0.203303 3.643178 -1.097454 -4.457607 14.727247 -1.682745 7.071854 0.296865 -5.746731 14.876084 -12.010753 1.792126 -0.285100 -46.761269 16.266256 1.252886 0.114596 -31.596695 -0.412380 5.903382 -6.637858 -3.171925 0.000007 0.000002 -0.000010 0.422680 -1.061113 -0.097246 1.453460 -5.677751 -2.667465 7.781205 0.045573 0.142345 14.177287 0.866936 -0.125900 7.709457 1.024757 -0.368449 8.525484 0.035777 0.117686 13.721912 0.518495 -0.015044 8.313128 0.361543 0.144354 8.292568 0.542633 -0.597671 12.658409 -1.131400 -0.789036 9.233280 -0.937619 -0.298189 8.785295 0.999762 -1.173656 14.014815 -2.210528 -1.053854 8.997767 -1.449749 -2.632319 0.006018 12.017442 -0.037400 -2.471262 22.026295 2.319029 -45.218143 89.069969 -45.889492 -14.902223 -2.694998 0.411902 0.000005 0.000020 -0.000004 -5.445975 4.214541 -7.097151 -44.566456 13.258328 -37.387772 -65.880470 -1.145815 1.562526 -120.332703 -8.801009 2.961854 -65.852425 -3.064886 1.614907 -72.186539 -1.240785 1.450327 -116.259026 -6.629383 1.247559 -70.073479 -6.129437 -2.441107 -69.935112 -5.455030 -4.638600 -106.897629 0.332342 -16.389782 -77.014549 -0.181568 -16.367195 -73.238846 -9.544905 -9.428280 -118.365921 11.000446 -41.284916 -78.704147 16.747797 -23.034094 28.376945 40.061489 31.414015 -0.000001 -0.000002 -0.000001 -21.742077 -26.649334 3.005506 0.000000 -0.000001 0.000002 -13.128181 -42.625893 30.540535 0.000000 0.000002 0.000001 26.467466 31.582853 6.353600 0.000000 0.000002 0.000004
1.459919 8.565086 -2.255511 178.841110 8.592630 168.019318 -1.603644 6.088583 3.301775 3.877341 -1.156438 -4.310595 16.614605 -1.483941 7.032107 0.281896 -5.458831 14.675244 -10.984287 0.616836 -0.278114 -42.653004 14.839409 1.837003 0.175443 -37.797340 -0.519800 6.221395 -5.773886 -6.987884 -0.000001 -0.000002 -0.000009 0.715138 -1.780343 -0.165825 2.626750 -9.577215 -4.446587 13.064408 0.092025 0.241083 23.804649 1.487315 -0.048502 12.944986 1.709847 -0.554852 14.313969 0.081774 0.199690 23.039656 0.892950 0.079913 13.958224 0.592054 0.299794 13.917570 0.928999 -1.000865 21.268030 -1.731542 -1.465505 15.508967 -1.516271 -0.531837 14.728723 1.702126 -1.965961 23.570160 -3.323221 -2.198487 15.173267 -2.173112 -4.415550 0.896105 10.826063 -0.010118 4.875531 14.424822 4.100732 -175.019135 81.077301 -175.746719 -11.832235 -1.363001 6.316691 0.000005 0.000010 -0.000005 -5.445977 4.214540 -7.097148 -44.566452 13.258330 -37.387768 -65.880470 -1.145820 1.562532 -120.332703 -8.801013 2.961855 -65.852440 -3.064887 1.614907 -72.186531 -1.240790 1.450336 -116.259026 -6.629389 1.247561 -70.073486 -6.129444 -2.441111 -69.935112 -5.455033 -4.638595 -106.897629 0.332338 -16.389778 -77.014549 -0.181569 -16.367197 -73.238846 -9.544909 -9.428266 -118.365921 11.000443 -41.284916 -78.704140 16.747795 -23.034100 38.341049 45.756248 40.560757 0.000001 0.000002 0.000000 -28.158211 -31.403267 10.343559 0.000002 -0.000000 -0.000003 -25.397341 -49.401474 41.273724 0.000000 -0.000002 -0.000000 34.681828 35.673702 16.547338 -0.000000 -0.000003 0.000000
